<svg width="24" height="24" viewBox="0 0 24 24" fill="none" xmlns="http://www.w3.org/2000/svg">
<path fill-rule="evenodd" clip-rule="evenodd" d="M1.74889 1.68949C0.0820312 3.37143 0.0820312 6.08685 0.0820312 11.5173V12.4827C0.0820312 17.9058 0.0820312 20.621 1.74889 22.3105C3.43082 24 6.12364 24 11.5163 24H12.4741C17.8668 24 20.5671 24 22.2415 22.3105C23.916 20.6286 23.916 17.9131 23.916 12.4827V11.5173C23.916 6.09425 23.916 3.37899 22.2415 1.68949C20.567 0 17.8668 0 12.4741 0H11.5163C6.12364 0 3.43082 0 1.74889 1.68949ZM13.5457 11.3447C14.0364 11.1398 14.4816 10.8396 14.8555 10.4615L14.8553 10.4689C15.4214 9.90023 15.807 9.17703 15.9635 8.39005C16.1201 7.60308 16.0407 6.78738 15.7354 6.04535C15.43 5.30333 14.9123 4.66803 14.2471 4.21919C13.582 3.77036 12.7991 3.528 11.9967 3.52252C11.1959 3.52942 10.4148 3.77229 9.75124 4.22075C9.08767 4.66921 8.57104 5.30336 8.26598 6.04389C7.96092 6.78441 7.88095 7.59844 8.03608 8.38418C8.19122 9.16991 8.57457 9.89246 9.13819 10.4615C9.51206 10.8396 9.95723 11.1398 10.4479 11.3447C10.9386 11.5495 11.4651 11.655 11.9968 11.655C12.5286 11.655 13.055 11.5495 13.5457 11.3447ZM10.691 6.28309C11.0349 5.9375 11.5018 5.7422 11.9893 5.73989C12.4769 5.7422 12.9438 5.9375 13.2877 6.28309C13.6317 6.62868 13.8248 7.09642 13.8248 7.584C13.8248 8.07159 13.6317 8.53933 13.2877 8.88492C12.9438 9.2305 12.4769 9.42581 11.9893 9.42811C11.5018 9.42581 11.0349 9.2305 10.691 8.88492C10.347 8.53933 10.1539 8.07159 10.1539 7.584C10.1539 7.09642 10.347 6.62868 10.691 6.28309ZM17.4274 13.2975L16.2433 11.6684L16.2432 11.6684C16.1753 11.5779 16.0395 11.5628 15.9641 11.6382C14.8403 12.6036 13.4676 13.2221 11.9968 13.2221C10.5274 13.186 9.11975 12.624 8.02955 11.6382C8.00891 11.622 7.98521 11.6101 7.95987 11.6031C7.93453 11.5962 7.90806 11.5945 7.88203 11.598C7.856 11.6015 7.83095 11.6102 7.80835 11.6236C7.78575 11.637 7.76607 11.6548 7.75048 11.6759L6.55879 13.2975C6.5311 13.337 6.51958 13.3856 6.52659 13.4333C6.53361 13.481 6.55862 13.5242 6.5965 13.554C7.5921 14.3761 8.75363 14.9191 9.96041 15.2058L7.66755 19.6405C7.60721 19.7687 7.69018 19.9196 7.83348 19.9196H10.2848C10.3216 19.9197 10.3576 19.9091 10.3884 19.889C10.4192 19.8689 10.4435 19.8402 10.4582 19.8064L11.9969 16.1484L13.528 19.8064C13.5582 19.8743 13.6261 19.9196 13.7015 19.9196H16.1528C16.1855 19.9197 16.2178 19.9112 16.2463 19.895C16.2748 19.8789 16.2986 19.8556 16.3153 19.8274C16.3321 19.7992 16.3412 19.7672 16.3418 19.7344C16.3424 19.7016 16.3344 19.6693 16.3187 19.6405L14.0333 15.2058C15.2659 14.9187 16.4165 14.3537 17.3973 13.554C17.4727 13.4937 17.4878 13.3805 17.4274 13.2975Z" fill="#090842"/>
</svg>
