<svg width="25" height="24" viewBox="0 0 25 24" fill="none" xmlns="http://www.w3.org/2000/svg">
<path fill-rule="evenodd" clip-rule="evenodd" d="M2.67533 1.75736C0.917969 3.51472 0.917969 6.34315 0.917969 12C0.917969 17.6569 0.917969 20.4853 2.67533 22.2426C4.43269 24 7.26111 24 12.918 24C18.5748 24 21.4032 24 23.1606 22.2426C24.918 20.4853 24.918 17.6569 24.918 12C24.918 6.34315 24.918 3.51472 23.1606 1.75736C21.4032 0 18.5748 0 12.918 0C7.26111 0 4.43269 0 2.67533 1.75736ZM6.81385 11.6493C10.3121 10.1252 12.6448 9.1204 13.812 8.63493C17.1445 7.24882 17.837 7.00804 18.2883 7.00008C18.3876 6.99834 18.6096 7.02294 18.7533 7.1396C18.8747 7.23811 18.9081 7.37118 18.9241 7.46458C18.9401 7.55797 18.96 7.77073 18.9442 7.93697C18.7636 9.83446 17.9822 14.4391 17.5846 16.5644C17.4164 17.4636 17.0852 17.7651 16.7645 17.7946C16.2127 17.8454 15.766 17.527 15.2688 17.1725C15.1382 17.0794 15.004 16.9837 14.8636 16.8917C14.3122 16.5303 13.8861 16.2401 13.4589 15.9491L13.4589 15.9491C13.0677 15.6827 12.6756 15.4157 12.1856 15.0928C11.1659 14.4208 11.5927 14.0093 12.1619 13.4606L12.1619 13.4606L12.162 13.4606C12.2541 13.3718 12.35 13.2793 12.444 13.1816C12.486 13.138 12.6914 12.9471 12.9809 12.6779L12.981 12.6778L12.9811 12.6778L12.9811 12.6778L12.9811 12.6778C13.9101 11.8141 15.7053 10.1451 15.7506 9.952C15.758 9.92032 15.7649 9.80221 15.6947 9.73985C15.6246 9.67748 15.521 9.69881 15.4463 9.71577C15.3403 9.73981 13.6531 10.855 10.3846 13.0613C9.90569 13.3902 9.4719 13.5504 9.08325 13.542C8.65478 13.5328 7.8306 13.2998 7.2179 13.1006C7.12798 13.0714 7.04028 13.0438 6.95563 13.0172L6.95552 13.0172L6.95543 13.0171C6.33267 12.8213 5.87534 12.6775 5.92113 12.3123C5.94822 12.0962 6.24579 11.8752 6.81385 11.6493Z" fill="#090842"/>
</svg>
