<svg width="25" height="24" viewBox="0 0 25 24" fill="none" xmlns="http://www.w3.org/2000/svg">
<path fill-rule="evenodd" clip-rule="evenodd" d="M2.67533 1.75736C0.917969 3.51472 0.917969 6.34315 0.917969 12C0.917969 17.6569 0.917969 20.4853 2.67533 22.2426C4.43269 24 7.26111 24 12.918 24C18.5748 24 21.4032 24 23.1606 22.2426C24.918 20.4853 24.918 17.6569 24.918 12C24.918 6.34315 24.918 3.51472 23.1606 1.75736C21.4032 0 18.5748 0 12.918 0C7.26111 0 4.43269 0 2.67533 1.75736ZM19.918 8.41452V7.83175C19.1986 7.83283 18.4934 7.63226 17.8831 7.25297C18.4233 7.84187 19.1348 8.24792 19.918 8.41452ZM16.1274 4.66656C16.109 4.56236 16.095 4.45747 16.0852 4.35218V4H13.3188V14.9365C13.3144 16.2113 12.2752 17.2437 10.9935 17.2437C10.6172 17.2437 10.2619 17.1548 9.94725 16.9967C10.3722 17.5519 11.0431 17.9102 11.7984 17.9102C12.0297 17.9102 12.2531 17.8766 12.464 17.814C12.2517 17.8776 12.0266 17.9117 11.7935 17.9117C11.0382 17.9117 10.3673 17.5533 9.94235 16.9981C9.18355 16.6168 8.66319 15.834 8.66319 14.93C8.66319 13.6515 9.70419 12.615 10.9886 12.615C11.2346 12.615 11.4718 12.6531 11.6943 12.7234V10.5445C11.251 10.5536 10.8216 10.6193 10.4132 10.7344C10.8231 10.6184 11.2542 10.5523 11.6993 10.5431V9.92271C11.4682 9.89125 11.2351 9.87547 11.0018 9.87558C8.19402 9.87553 5.91797 12.1415 5.91797 14.9365C5.91797 16.6808 6.80425 18.2189 8.15299 19.129L8.16684 19.1431C8.97565 19.6838 9.94929 19.9992 10.9968 19.9992C13.8044 19.9992 16.0804 17.7332 16.0804 14.938V9.35024C17.1609 10.1189 18.484 10.5712 19.9131 10.5712V8.41593C19.1153 8.24676 18.4091 7.83172 17.8782 7.25444C16.9693 6.68979 16.3145 5.75826 16.1225 4.66797H14.1238V4.66656H16.1274Z" fill="#090842"/>
</svg>
