<svg width="25" height="24" viewBox="0 0 25 24" fill="none" xmlns="http://www.w3.org/2000/svg">
<g clip-path="url(#clip0_1109_1498)">
<path fill-rule="evenodd" clip-rule="evenodd" d="M1.7691 1.68707C0.0820312 3.37413 0.0820312 6.0894 0.0820312 11.52V12.48C0.0820312 17.9106 0.0820312 20.6259 1.7691 22.313C3.45616 24 6.17143 24 11.602 24H12.562C17.9926 24 20.7079 24 22.395 22.313C24.082 20.6259 24.082 17.9106 24.082 12.48V11.52C24.082 6.0894 24.082 3.37413 22.395 1.68707C20.7079 0 17.9926 0 12.562 0H11.602C6.17143 0 3.45616 0 1.7691 1.68707ZM4.13209 7.30005C4.26209 13.54 7.38208 17.2901 12.8521 17.2901H13.1621V13.72C15.1721 13.92 16.692 15.3901 17.302 17.2901H20.1421C19.3621 14.4501 17.312 12.8801 16.032 12.2801C17.312 11.5401 19.112 9.74005 19.542 7.30005H16.9619C16.4019 9.28005 14.7421 11.08 13.1621 11.25V7.30005H10.582V14.22C8.98203 13.8201 6.96208 11.88 6.87208 7.30005H4.13209Z" fill="#090842"/>
</g>
<defs>
<clipPath id="clip0_1109_1498">
<rect width="24" height="24" fill="white" transform="translate(0.0820312)"/>
</clipPath>
</defs>
</svg>
