<svg width="25" height="24" viewBox="0 0 25 24" fill="none" xmlns="http://www.w3.org/2000/svg">
<g clip-path="url(#clip0_1109_1511)">
<path d="M15.2323 14.3143C13.3465 16.26 13.2094 18.6857 13.0465 24C18.0008 24 21.4208 23.9829 23.1865 22.2686C24.9008 20.5029 24.918 16.92 24.918 12.1286C19.6037 12.3 17.178 12.4286 15.2323 14.3143ZM0.917969 12.1286C0.917969 16.92 0.935112 20.5029 2.6494 22.2686C4.41511 23.9829 7.83511 24 12.7894 24C12.618 18.6857 12.4894 16.26 10.6037 14.3143C8.65797 12.4286 6.23225 12.2914 0.917969 12.1286ZM12.7894 0C7.84368 0 4.41511 0.0171429 2.6494 1.73143C0.935112 3.49714 0.917969 7.08 0.917969 11.8714C6.23225 11.7 8.65797 11.5714 10.6037 9.68571C12.4894 7.74 12.6265 5.31429 12.7894 0ZM15.2323 9.68571C13.3465 7.74 13.2094 5.31429 13.0465 0C18.0008 0 21.4208 0.0171429 23.1865 1.73143C24.9008 3.49714 24.918 7.08 24.918 11.8714C19.6037 11.7 17.178 11.5714 15.2323 9.68571Z" fill="#090842"/>
<path d="M24.918 12.1286V11.8714C19.6037 11.7 17.178 11.5714 15.2323 9.68571C13.3465 7.74 13.2094 5.31429 13.0465 0H12.7894C12.618 5.31429 12.4894 7.74 10.6037 9.68571C8.65797 11.5714 6.23225 11.7086 0.917969 11.8714V12.1286C6.23225 12.3 8.65797 12.4286 10.6037 14.3143C12.4894 16.26 12.6265 18.6857 12.7894 24H13.0465C13.218 18.6857 13.3465 16.26 15.2323 14.3143C17.178 12.4286 19.6037 12.2914 24.918 12.1286Z" fill="white"/>
</g>
<defs>
<clipPath id="clip0_1109_1511">
<rect width="24" height="24" fill="white" transform="translate(0.917969)"/>
</clipPath>
</defs>
</svg>
