<svg width="60" height="60" viewBox="0 0 60 60" fill="none" xmlns="http://www.w3.org/2000/svg">
<path d="M60 0H0V60H60V0Z" fill="#0000FF"/>
<path d="M43.1566 21.861C43.1566 18.3825 40.3366 15.5625 36.8581 15.5625H17.0469V24.0975H19.9704V18.3908H36.8589C38.7759 18.3908 40.3291 19.9447 40.3291 21.861C40.3291 23.778 38.7751 25.3313 36.8589 25.3313L35.2269 25.3455H17.0469V28.1595H36.8581C40.3374 28.1595 43.1566 25.3395 43.1566 21.861Z" fill="white"/>
<path d="M37.0014 29.4102H17.0469V32.2189H37.0006C39.5814 32.2189 41.6731 34.3107 41.6731 36.8914C41.6731 39.4722 39.5814 41.5639 37.0006 41.5639H19.9104V33.4669H17.0469V44.3719H37.0006C41.1324 44.3719 44.4811 41.0224 44.4811 36.8907C44.4819 32.7597 41.1324 29.4102 37.0014 29.4102Z" fill="white"/>
<path d="M47.8213 32.2175C47.1673 30.7453 46.2141 29.435 45.0381 28.3648V28.3138C46.4616 26.5498 47.3151 24.3058 47.3151 21.863C47.3151 16.1848 42.7123 11.582 37.0341 11.582H12.8203V48.4161H37.2831C43.6483 48.4161 48.8083 43.2561 48.8083 36.8908C48.8083 35.2265 48.4558 33.6455 47.8213 32.2175ZM37.2831 45.6561H15.6696V14.3068H37.0341C41.2071 14.3068 44.5896 17.6893 44.5896 21.8623C44.5896 24.8435 42.8623 27.4213 40.3536 28.6505V28.6783C42.1603 29.354 43.6828 30.6095 44.6983 32.2175C45.5526 33.5698 46.0483 35.1718 46.0483 36.8901C46.0491 41.7313 42.1243 45.6561 37.2831 45.6561Z" fill="white"/>
</svg>
