<svg width="25" height="24" viewBox="0 0 25 24" fill="none" xmlns="http://www.w3.org/2000/svg">
<g clip-path="url(#clip0_485_9374)">
<path fill-rule="evenodd" clip-rule="evenodd" d="M12.5018 21.818C17.9241 21.818 22.32 17.4222 22.32 11.9998C22.32 6.578 17.9241 2.18164 12.5018 2.18164C7.07996 2.18164 2.68359 6.578 2.68359 11.9998C2.68359 17.4222 7.07996 21.818 12.5018 21.818Z" fill="#D9D9D9"/>
<mask id="mask0_485_9374" style="mask-type:luminance" maskUnits="userSpaceOnUse" x="0" y="0" width="25" height="24">
<path d="M24.5 0H0.5V24H24.5V0Z" fill="white"/>
<path fill-rule="evenodd" clip-rule="evenodd" d="M12.5018 21.818C17.9241 21.818 22.32 17.4222 22.32 11.9998C22.32 6.578 17.9241 2.18164 12.5018 2.18164C7.07996 2.18164 2.68359 6.578 2.68359 11.9998C2.68359 17.4222 7.07996 21.818 12.5018 21.818Z" fill="black"/>
</mask>
<g mask="url(#mask0_485_9374)">
<path d="M20.1364 12C20.1364 16.2174 16.7174 19.6364 12.5 19.6364V24C19.1273 24 24.5 18.6273 24.5 12H20.1364ZM12.5 4.36364C16.7173 4.36364 20.1364 7.78309 20.1364 12H24.5C24.5 5.37328 19.1274 0 12.5 0V4.36364ZM4.86364 12C4.86364 7.78315 8.28315 4.36364 12.5 4.36364V0C5.8732 0 0.5 5.3732 0.5 12H4.86364ZM12.5 19.6364C8.28309 19.6364 4.86364 16.2173 4.86364 12H0.5C0.5 18.6274 5.87328 24 12.5 24V19.6364Z" fill="white"/>
</g>
<path d="M22.32 11.9998C22.32 17.4222 17.9241 21.818 12.5018 21.818C7.07996 21.818 2.68359 17.4222 2.68359 11.9998C2.68359 6.578 7.07996 2.18164 12.5018 2.18164C17.9241 2.18164 22.32 6.578 22.32 11.9998Z" fill="#DA2F47"/>
<path d="M16.5847 18.4796C16.5601 18.382 15.9476 16.0911 12.5019 16.0911C9.05576 16.0911 8.44376 18.382 8.41921 18.4796C8.38921 18.598 8.44267 18.7207 8.54849 18.7818C8.65485 18.8413 8.78794 18.8249 8.87576 18.7398C8.88612 18.7295 9.94158 17.7275 12.5019 17.7275C15.0623 17.7275 16.1183 18.7295 16.1281 18.7393C16.1805 18.7911 16.2503 18.8184 16.3201 18.8184C16.3659 18.8184 16.4123 18.8069 16.4543 18.7835C16.5612 18.7224 16.6147 18.5985 16.5847 18.4796ZM11.2512 11.6145C9.47576 9.83909 6.62249 9.81836 6.50194 9.81836C6.20085 9.81836 5.95703 10.0622 5.95703 10.3627C5.95649 10.6638 6.2003 10.9082 6.5014 10.9093C6.51721 10.9093 7.5514 10.9213 8.67394 11.3113C8.35049 11.6604 8.1383 12.2025 8.1383 12.8184C8.1383 13.8733 8.74867 14.7275 9.50194 14.7275C10.2552 14.7275 10.8656 13.8733 10.8656 12.8184C10.8656 12.7235 10.8552 12.6329 10.8454 12.5418C10.8525 12.5418 10.859 12.5456 10.8656 12.5456C11.0052 12.5456 11.1449 12.4922 11.2512 12.3858C11.4645 12.1725 11.4645 11.8278 11.2512 11.6145ZM18.5019 9.81836C18.3814 9.81836 15.5287 9.83909 13.7527 11.6145C13.5394 11.8278 13.5394 12.1725 13.7527 12.3858C13.859 12.4922 13.9987 12.5456 14.1383 12.5456C14.1454 12.5456 14.1514 12.5418 14.1579 12.5418C14.1492 12.6329 14.1383 12.7235 14.1383 12.8184C14.1383 13.8733 14.7487 14.7275 15.5019 14.7275C16.2552 14.7275 16.8656 13.8733 16.8656 12.8184C16.8656 12.2025 16.6534 11.6604 16.3299 11.3113C17.4525 10.9213 18.4867 10.9093 18.503 10.9093C18.8036 10.9082 19.0474 10.6638 19.0469 10.3627C19.0463 10.0622 18.803 9.81836 18.5019 9.81836Z" fill="#292F33"/>
</g>
<defs>
<clipPath id="clip0_485_9374">
<rect width="24" height="24" fill="white" transform="translate(0.5)"/>
</clipPath>
</defs>
</svg>
