<svg width="25" height="24" viewBox="0 0 25 24" fill="none" xmlns="http://www.w3.org/2000/svg">
<g clip-path="url(#clip0_485_9302)">
<path fill-rule="evenodd" clip-rule="evenodd" d="M21.945 12.8115C22.0626 12.5775 22.1329 12.32 22.1329 12.0456C22.1329 11.7345 22.0469 11.4431 21.8968 11.1885C21.8868 11.1646 21.8746 11.1412 21.8601 11.1184C21.74 10.93 21.5856 10.7661 21.4067 10.6319C21.7503 10.3036 21.9631 9.85651 21.9631 9.36364C21.9631 9.04859 21.8757 8.7536 21.7226 8.49669C21.7133 8.47597 21.7024 8.45568 21.6897 8.43582C21.5111 8.15551 21.2561 7.92953 20.9582 7.77533C21.2071 7.47037 21.3608 7.09406 21.3608 6.68219C21.3608 6.36849 21.274 6.07466 21.1222 5.81851C21.1127 5.79669 21.1013 5.77526 21.088 5.75437C20.9101 5.47482 20.656 5.24906 20.359 5.09479C20.6083 4.78933 20.7625 4.41306 20.7625 4.00019C20.7625 3.67188 20.6687 3.36359 20.5047 3.09739C20.5 3.08897 20.495 3.08063 20.4897 3.07237C20.3933 2.92104 20.2746 2.78552 20.1389 2.6686C19.7905 2.3666 19.3238 2.18164 18.8115 2.18164H8.24916C7.05818 2.18164 6.64415 2.49109 6.24644 2.78834C5.9395 3.01776 5.64228 3.23991 5.00506 3.30691C3.49599 3.4651 3.39062 4.42619 3.39062 5.426V11.2722C3.39062 12.6139 4.14936 12.8639 5.05145 13.1611C5.87626 13.4329 6.82093 13.7441 7.41502 14.9655C8.55074 17.3003 8.52955 18.9566 8.51568 20.0408C8.50116 21.1789 8.49466 21.6865 9.84311 21.6865C11.44 21.6865 12.39 19.5784 12.1904 18.2055C12.1104 17.6542 12.017 17.1813 11.9385 16.7832C11.7163 15.6566 11.612 15.1279 12.2577 15.1138C12.7365 15.1033 13.2022 15.0952 13.6539 15.0873C18.1339 15.009 21.2319 14.955 21.945 12.8115Z" fill="#D9D9D9"/>
<mask id="mask0_485_9302" style="mask-type:luminance" maskUnits="userSpaceOnUse" x="1" y="0" width="25" height="24">
<path d="M25.0508 0H1.05078V24H25.0508V0Z" fill="white"/>
<path fill-rule="evenodd" clip-rule="evenodd" d="M21.945 12.8115C22.0626 12.5775 22.1329 12.32 22.1329 12.0456C22.1329 11.7345 22.0469 11.4431 21.8968 11.1885C21.8868 11.1646 21.8746 11.1412 21.8601 11.1184C21.74 10.93 21.5856 10.7661 21.4067 10.6319C21.7503 10.3036 21.9631 9.85651 21.9631 9.36364C21.9631 9.04859 21.8757 8.7536 21.7226 8.49669C21.7133 8.47597 21.7024 8.45568 21.6897 8.43582C21.5111 8.15551 21.2561 7.92953 20.9582 7.77533C21.2071 7.47037 21.3608 7.09406 21.3608 6.68219C21.3608 6.36849 21.274 6.07466 21.1222 5.81851C21.1127 5.79669 21.1013 5.77526 21.088 5.75437C20.9101 5.47482 20.656 5.24906 20.359 5.09479C20.6083 4.78933 20.7625 4.41306 20.7625 4.00019C20.7625 3.67188 20.6687 3.36359 20.5047 3.09739C20.5 3.08897 20.495 3.08063 20.4897 3.07237C20.3933 2.92104 20.2746 2.78552 20.1389 2.6686C19.7905 2.3666 19.3238 2.18164 18.8115 2.18164H8.24916C7.05818 2.18164 6.64415 2.49109 6.24644 2.78834C5.9395 3.01776 5.64228 3.23991 5.00506 3.30691C3.49599 3.4651 3.39062 4.42619 3.39062 5.426V11.2722C3.39062 12.6139 4.14936 12.8639 5.05145 13.1611C5.87626 13.4329 6.82093 13.7441 7.41502 14.9655C8.55074 17.3003 8.52955 18.9566 8.51568 20.0408C8.50116 21.1789 8.49466 21.6865 9.84311 21.6865C11.44 21.6865 12.39 19.5784 12.1904 18.2055C12.1104 17.6542 12.017 17.1813 11.9385 16.7832C11.7163 15.6566 11.612 15.1279 12.2577 15.1138C12.7365 15.1033 13.2022 15.0952 13.6539 15.0873C18.1339 15.009 21.2319 14.955 21.945 12.8115Z" fill="black"/>
</mask>
<g mask="url(#mask0_485_9302)">
<path d="M21.9466 12.8116L19.8263 11.8859C19.7807 11.9766 19.7419 12.07 19.7101 12.1657L21.9466 12.8116ZM21.8984 11.1887L19.7173 11.9821C19.7542 12.0702 19.7972 12.1559 19.846 12.2388L21.8984 11.1887ZM21.8617 11.1185L23.8759 10.006L23.875 10.0045L21.8617 11.1185ZM21.4083 10.6321L19.7317 9.1092C19.2713 9.54933 19.0315 10.15 19.0712 10.7635C19.1108 11.377 19.4264 11.9464 19.9403 12.3318L21.4083 10.6321ZM21.7242 8.49687L19.5629 9.33616C19.5965 9.41127 19.6346 9.48458 19.677 9.55576L21.7242 8.49687ZM21.6914 8.436L19.6781 9.55004L19.6793 9.55184L21.6914 8.436ZM20.9598 7.77551L19.096 6.45491C18.6848 6.9588 18.5288 7.60418 18.6683 8.22365C18.8079 8.84313 19.2292 9.37566 19.8231 9.68296L20.9598 7.77551ZM21.1239 5.81869L18.9557 6.64233C18.9903 6.72142 19.0298 6.79855 19.0741 6.87333L21.1239 5.81869ZM21.0896 5.75455L19.0755 6.86722L19.0763 6.86842L21.0896 5.75455ZM20.3606 5.09497L18.497 3.77408C18.0861 4.27744 17.9298 4.92218 18.0686 5.54122C18.2075 6.16031 18.6277 6.69278 19.2205 7.00069L20.3606 5.09497ZM20.5063 3.09757L18.4269 4.10051C18.4425 4.12863 18.4588 4.15644 18.4757 4.1839L20.5063 3.09757ZM20.4914 3.07255L18.4781 4.18658L18.4793 4.18843L20.4914 3.07255ZM20.1405 2.66877L18.5459 4.26637L18.5508 4.27068L20.1405 2.66877ZM5.00669 3.30709L5.26843 5.47522L5.26924 5.47516L5.00669 3.30709ZM19.793 12.0458C19.793 11.966 19.8147 11.909 19.8263 11.8859L24.0668 13.7373C24.3138 13.2463 24.476 12.6744 24.476 12.0458H19.793ZM19.846 12.2388C19.8135 12.1836 19.793 12.1153 19.793 12.0458H24.476C24.476 11.3541 24.2835 10.703 23.9509 10.1386L19.846 12.2388ZM19.8475 12.2311C19.7969 12.1515 19.7533 12.0682 19.7173 11.9821L24.0796 10.3952C24.0235 10.2613 23.9555 10.1311 23.8759 10.006L19.8475 12.2311ZM19.9403 12.3318C19.9063 12.3063 19.8744 12.2732 19.8485 12.2326L23.875 10.0045C23.6089 9.58707 23.2681 9.22615 22.8765 8.93247L19.9403 12.3318ZM19.6233 9.36382C19.6233 9.25822 19.6716 9.16664 19.7317 9.1092L23.0851 12.155C23.8322 11.4409 24.3062 10.4552 24.3062 9.36382H19.6233ZM19.677 9.55576C19.6431 9.49882 19.6233 9.43069 19.6233 9.36382H24.3062C24.3062 8.66684 24.1115 8.00869 23.7715 7.43798L19.677 9.55576ZM19.6793 9.55184C19.6351 9.48267 19.5962 9.41056 19.5629 9.33616L23.8856 7.65758C23.8338 7.54178 23.773 7.42898 23.7035 7.32016L19.6793 9.55184ZM19.8231 9.68296C19.769 9.65498 19.7172 9.61124 19.6781 9.55004L23.7046 7.32196C23.3083 6.70015 22.7465 6.20438 22.0966 5.86811L19.8231 9.68296ZM19.0209 6.68236C19.0209 6.57502 19.0636 6.49462 19.096 6.45491L22.8237 9.09611C23.3538 8.44647 23.7039 7.61345 23.7039 6.68236H19.0209ZM19.0741 6.87333C19.0406 6.81676 19.0209 6.74902 19.0209 6.68236H23.7039C23.7039 5.98833 23.5107 5.33296 23.1736 4.76405L19.0741 6.87333ZM19.0763 6.86842C19.0301 6.79593 18.9898 6.72033 18.9557 6.64233L23.2921 4.99504C23.2388 4.87341 23.1757 4.75492 23.1029 4.64065L19.0763 6.86842ZM19.2205 7.00069C19.1669 6.97287 19.1149 6.92913 19.0755 6.86722L23.1037 4.64189C22.7086 4.02082 22.1483 3.52562 21.5006 3.18923L19.2205 7.00069ZM18.4227 4.00036C18.4227 3.89245 18.4659 3.81212 18.497 3.77408L22.2242 6.41585C22.7539 5.76693 23.1056 4.93402 23.1056 4.00036H18.4227ZM18.4757 4.1839C18.442 4.12918 18.4227 4.06426 18.4227 4.00036H23.1056C23.1056 3.27986 22.8986 2.59834 22.5369 2.01124L18.4757 4.1839ZM18.4793 4.18843C18.4609 4.15963 18.4434 4.1303 18.4269 4.10051L22.5857 2.09464C22.5598 2.048 22.5324 2.00198 22.5035 1.95667L18.4793 4.18843ZM18.5508 4.27068C18.5242 4.24769 18.4992 4.2196 18.4781 4.18658L22.5046 1.95851C22.2907 1.62283 22.0283 1.32371 21.7302 1.06687L18.5508 4.27068ZM18.8131 4.36364C18.7086 4.36364 18.6119 4.32364 18.5459 4.26637L21.7352 1.07118C20.9722 0.409923 19.9421 0 18.8131 0V4.36364ZM8.25079 4.36364H18.8131V0H8.25079V4.36364ZM7.71313 4.49047C7.91116 4.34244 7.88013 4.3773 7.83424 4.39468C7.78764 4.41236 7.87375 4.36364 8.25079 4.36364V0C7.43678 0 6.72041 0.106 6.06959 0.352722C5.41957 0.599133 4.98264 0.937347 4.783 1.08657L7.71313 4.49047ZM5.26924 5.47516C6.57518 5.33783 7.30003 4.79924 7.71313 4.49047L4.783 1.08657C4.74257 1.11679 4.71676 1.13603 4.69267 1.15354C4.67015 1.16991 4.65697 1.17901 4.64937 1.18409C4.63619 1.1929 4.64815 1.18395 4.67647 1.17032C4.69018 1.16372 4.70517 1.15724 4.7207 1.15138C4.7362 1.14554 4.74954 1.14134 4.75975 1.13852C4.78111 1.13261 4.77922 1.13534 4.74413 1.13903L5.26924 5.47516ZM5.73371 5.42618C5.73371 5.19792 5.74103 5.06879 5.75311 4.98466C5.76483 4.90293 5.76996 4.95193 5.71072 5.05803C5.67865 5.11547 5.6307 5.18423 5.56291 5.25351C5.49445 5.32348 5.42021 5.37914 5.34924 5.42003C5.20813 5.50135 5.14469 5.4882 5.26843 5.47522L4.74495 1.13895C3.39077 1.28089 2.20569 1.88115 1.55641 3.04401C1.0441 3.96158 1.05079 4.96535 1.05079 5.42618H5.73371ZM5.73371 11.2724V5.42618H1.05079V11.2724H5.73371ZM5.83363 11.1043C5.71604 11.0656 5.6315 11.0376 5.55416 11.0102C5.47933 10.9838 5.4332 10.9654 5.40415 10.9528C5.34359 10.9264 5.40368 10.9442 5.4959 11.0257C5.54391 11.0681 5.59258 11.1207 5.63572 11.1818C5.67874 11.2427 5.70663 11.2984 5.72345 11.3412C5.75563 11.4231 5.73371 11.422 5.73371 11.2724H1.05079C1.05079 12.3578 1.37825 13.4005 2.27285 14.1914C3.00457 14.8382 3.93861 15.1083 4.27253 15.2183L5.83363 11.1043ZM9.54924 14.0649C8.52772 11.965 6.73469 11.4012 5.83363 11.1043L4.27253 15.2183C4.71592 15.3644 4.87334 15.4276 4.99646 15.5063C5.06139 15.5479 5.16502 15.6218 5.28404 15.8664L9.54924 14.0649ZM10.8587 20.0669C10.874 18.8605 10.8935 16.8285 9.54924 14.0649L5.28404 15.8664C6.21121 17.7724 6.18833 19.0531 6.17603 20.015L10.8587 20.0669ZM9.84474 19.5049C9.62722 19.5049 9.69377 19.4793 9.88202 19.5445C9.99324 19.583 10.1488 19.6537 10.3117 19.778C10.4785 19.9052 10.6091 20.0553 10.7027 20.2079C10.8708 20.482 10.8702 20.6858 10.8625 20.5986C10.8551 20.5156 10.8546 20.3849 10.8587 20.0669L6.17603 20.015C6.17282 20.2661 6.16599 20.6257 6.19546 20.9579C6.22455 21.2861 6.30384 21.8301 6.63711 22.3734C7.47763 23.7436 9.03055 23.8685 9.84474 23.8685V19.5049ZM9.87178 18.4984C9.88003 18.5551 9.88361 18.6938 9.84029 18.8906C9.79814 19.0823 9.72526 19.2658 9.64021 19.4099C9.55176 19.5599 9.48778 19.6049 9.49978 19.5965C9.53075 19.5746 9.6573 19.5049 9.84474 19.5049V23.8685C11.8701 23.8685 13.1383 22.5387 13.744 21.5121C14.3682 20.454 14.6873 19.1161 14.5123 17.9127L9.87178 18.4984ZM9.63723 17.1777C9.71596 17.5766 9.7999 18.0038 9.87178 18.4984L14.5123 17.9127C14.424 17.3048 14.3214 16.7864 14.243 16.3889L9.63723 17.1777ZM12.2045 12.9328C11.7318 12.9431 10.9494 13.0555 10.2871 13.6459C9.63342 14.2287 9.48128 14.9367 9.44247 15.3335C9.40396 15.7274 9.44932 16.1008 9.48614 16.3484C9.52565 16.6146 9.58472 16.9115 9.63723 17.1777L14.243 16.3889C14.1845 16.0919 14.1471 15.9002 14.1248 15.75C14.0997 15.5812 14.1177 15.6104 14.1061 15.7295C14.0941 15.8515 14.0231 16.3543 13.5245 16.7988C13.0174 17.251 12.464 17.2919 12.3142 17.2952L12.2045 12.9328ZM13.6117 12.906C13.1608 12.9139 12.6899 12.9221 12.2045 12.9328L12.3142 17.2952C12.7863 17.2848 13.2469 17.2768 13.6994 17.2689L13.6117 12.906ZM19.7101 12.1657C19.6878 12.2326 19.6755 12.2476 19.6161 12.2872C19.5092 12.3586 19.2531 12.4822 18.7116 12.593C17.5671 12.8271 15.9446 12.8653 13.6117 12.906L13.6994 17.2689C15.8465 17.2314 18.013 17.2034 19.7158 16.8551C21.4909 16.492 23.4613 15.6273 24.183 13.4576L19.7101 12.1657Z" fill="white"/>
</g>
<path d="M22.1329 12.0456C22.1329 12.32 22.0626 12.5775 21.945 12.8115C21.16 15.1711 17.4851 14.9987 12.2577 15.1138C11.3838 15.1329 11.8837 16.0945 12.1904 18.2055C12.39 19.5784 11.44 21.6865 9.84311 21.6865C7.21014 21.6865 9.74302 19.7513 7.41502 14.9655C6.17111 12.4084 3.39062 13.8407 3.39062 11.2722V5.426C3.39062 4.42619 3.49599 3.4651 5.00506 3.30691C6.46789 3.1531 6.13892 2.18164 8.24916 2.18164H18.8115C19.8874 2.18164 20.7625 2.99764 20.7625 4.00019C20.7625 4.41582 20.6062 4.79437 20.3539 5.10091C20.951 5.41237 21.3608 6.00037 21.3608 6.68219C21.3608 7.09673 21.2051 7.47528 20.9534 7.78128C21.5522 8.09219 21.9631 8.68073 21.9631 9.36364C21.9631 9.85946 21.7477 10.3089 21.4006 10.6378C21.8437 10.9711 22.1329 11.4751 22.1329 12.0456Z" fill="#FFDB5E"/>
<path d="M15.147 10.2271H20.1835C20.8684 10.2271 21.5111 10.5686 21.8611 11.1178C22.0051 11.3442 21.9249 11.6371 21.6814 11.7718C21.4385 11.9066 21.1242 11.8307 20.9796 11.6044C20.8139 11.3431 20.5078 11.1816 20.1829 11.1816H15.0258C14.5148 11.1816 14.0992 11.5689 14.0992 12.0451C14.0992 12.5213 14.5148 12.9086 15.0258 12.9086H18.4719C18.7546 12.9086 18.9841 13.1224 18.9841 13.3858C18.9841 13.6493 18.7546 13.8631 18.4719 13.8631H15.0252C13.9493 13.8631 13.0742 13.0476 13.0742 12.0451C13.0742 11.486 13.3523 10.9913 13.7796 10.6575C13.4196 10.3275 13.1954 9.86928 13.1954 9.3631C13.1954 8.80237 13.4752 8.306 13.9049 7.97273C13.5472 7.64328 13.3253 7.18673 13.3253 6.68164C13.3253 6.07073 13.6526 5.53182 14.1501 5.20182C13.8434 4.88055 13.6514 4.46219 13.6514 3.99964C13.6514 2.9971 14.5265 2.18164 15.6024 2.18164H18.8126C19.4974 2.18164 20.1408 2.52255 20.4908 3.07182C20.6354 3.29819 20.5552 3.5911 20.3123 3.72582C20.0688 3.85946 19.7544 3.78582 19.6104 3.55946C19.4436 3.29819 19.1374 3.13619 18.8126 3.13619H15.6024C15.0914 3.13619 14.6758 3.52346 14.6758 3.99964C14.6758 4.47582 15.0914 4.8631 15.6024 4.8631H19.4108C20.0957 4.8631 20.7396 5.20455 21.089 5.75382C21.2336 5.98073 21.1534 6.27364 20.9105 6.40782C20.6652 6.54473 20.3521 6.46782 20.2087 6.24146C20.0395 5.97582 19.741 5.81764 19.4108 5.81764H15.2764C14.7653 5.81764 14.3497 6.20546 14.3497 6.68164C14.3497 7.15782 14.7653 7.5451 15.2764 7.5451H20.0126C20.6974 7.5451 21.3408 7.886 21.6908 8.43528C21.8354 8.66164 21.7552 8.95455 21.5123 9.08928C21.2682 9.22346 20.9544 9.14928 20.8104 8.92291C20.6412 8.65782 20.3427 8.49964 20.0126 8.49964H15.147C14.636 8.49964 14.2204 8.88691 14.2204 9.3631C14.2204 9.83928 14.6354 10.2271 15.147 10.2271Z" fill="#EE9547"/>
</g>
<defs>
<clipPath id="clip0_485_9302">
<rect width="24" height="24" fill="white" transform="translate(0.5)"/>
</clipPath>
</defs>
</svg>
