<svg width="25" height="24" viewBox="0 0 25 24" fill="none" xmlns="http://www.w3.org/2000/svg">
<g clip-path="url(#clip0_485_9287)">
<path fill-rule="evenodd" clip-rule="evenodd" d="M21.945 11.1876C22.0626 11.4216 22.1329 11.679 22.1329 11.9534C22.1329 12.2645 22.0469 12.5559 21.8968 12.8105C21.8868 12.8344 21.8746 12.8579 21.8601 12.8807C21.74 13.0691 21.5856 13.233 21.4067 13.3671C21.7503 13.6955 21.9631 14.1425 21.9631 14.6354C21.9631 14.9505 21.8757 15.2454 21.7226 15.5024C21.7133 15.5231 21.7024 15.5434 21.6897 15.5632C21.5111 15.8435 21.2561 16.0695 20.9582 16.2237C21.2071 16.5287 21.3608 16.905 21.3608 17.3169C21.3608 17.6306 21.274 17.9244 21.1222 18.1805C21.1127 18.2024 21.1013 18.2238 21.088 18.2447C20.9101 18.5242 20.656 18.75 20.359 18.9042C20.6083 19.2097 20.7625 19.586 20.7625 19.9989C20.7625 20.3272 20.6687 20.6355 20.5047 20.9016C20.5 20.9101 20.495 20.9184 20.4897 20.9267C20.3933 21.078 20.2746 21.2135 20.1389 21.3304C19.7905 21.6324 19.3238 21.8174 18.8115 21.8174H8.24916C7.05829 21.8174 6.64421 21.508 6.24657 21.2109C5.93958 20.9816 5.64237 20.7594 5.00506 20.6927C3.49599 20.5345 3.39062 19.5734 3.39062 18.5736V12.7269C3.39062 11.3851 4.14936 11.1351 5.05145 10.8379C5.87626 10.5662 6.82093 10.2549 7.41501 9.03359C8.55074 6.69877 8.52955 5.04243 8.51568 3.95825C8.50116 2.8201 8.49466 2.3125 9.84311 2.3125C11.44 2.3125 12.39 4.42068 12.1904 5.79359C12.1104 6.34483 12.017 6.81774 11.9385 7.21586C11.7163 8.34244 11.612 8.8711 12.2577 8.88523C12.7365 8.89575 13.2022 8.90388 13.6539 8.91179C18.1339 8.99001 21.2319 9.04406 21.945 11.1876Z" fill="#D9D9D9"/>
<mask id="mask0_485_9287" style="mask-type:luminance" maskUnits="userSpaceOnUse" x="1" y="0" width="25" height="25">
<path d="M25.0508 0.130859H1.05078V24.1309H25.0508V0.130859Z" fill="white"/>
<path fill-rule="evenodd" clip-rule="evenodd" d="M21.945 11.1876C22.0626 11.4216 22.1329 11.679 22.1329 11.9534C22.1329 12.2645 22.0469 12.5559 21.8968 12.8105C21.8868 12.8344 21.8746 12.8579 21.8601 12.8807C21.74 13.0691 21.5856 13.233 21.4067 13.3671C21.7503 13.6955 21.9631 14.1425 21.9631 14.6354C21.9631 14.9505 21.8757 15.2454 21.7226 15.5024C21.7133 15.5231 21.7024 15.5434 21.6897 15.5632C21.5111 15.8435 21.2561 16.0695 20.9582 16.2237C21.2071 16.5287 21.3608 16.905 21.3608 17.3169C21.3608 17.6306 21.274 17.9244 21.1222 18.1805C21.1127 18.2024 21.1013 18.2238 21.088 18.2447C20.9101 18.5242 20.656 18.75 20.359 18.9042C20.6083 19.2097 20.7625 19.586 20.7625 19.9989C20.7625 20.3272 20.6687 20.6355 20.5047 20.9016C20.5 20.9101 20.495 20.9184 20.4897 20.9267C20.3933 21.078 20.2746 21.2135 20.1389 21.3304C19.7905 21.6324 19.3238 21.8174 18.8115 21.8174H8.24916C7.05829 21.8174 6.64421 21.508 6.24657 21.2109C5.93958 20.9816 5.64237 20.7594 5.00506 20.6927C3.49599 20.5345 3.39062 19.5734 3.39062 18.5736V12.7269C3.39062 11.3851 4.14936 11.1351 5.05145 10.8379C5.87626 10.5662 6.82093 10.2549 7.41501 9.03359C8.55074 6.69877 8.52955 5.04243 8.51568 3.95825C8.50116 2.8201 8.49466 2.3125 9.84311 2.3125C11.44 2.3125 12.39 4.42068 12.1904 5.79359C12.1104 6.34483 12.017 6.81774 11.9385 7.21586C11.7163 8.34244 11.612 8.8711 12.2577 8.88523C12.7365 8.89575 13.2022 8.90388 13.6539 8.91179C18.1339 8.99001 21.2319 9.04406 21.945 11.1876Z" fill="black"/>
</mask>
<g mask="url(#mask0_485_9287)">
<path d="M21.9466 11.1878L19.7101 11.8338C19.7419 11.9294 19.7807 12.0228 19.8263 12.1135L21.9466 11.1878ZM21.8984 12.8107L19.846 11.7606C19.7972 11.8435 19.7542 11.9292 19.7173 12.0173L21.8984 12.8107ZM21.8617 12.8809L23.875 13.9949L23.8759 13.9934L21.8617 12.8809ZM21.4083 13.3673L19.9403 11.6676C19.4264 12.053 19.1108 12.6224 19.0712 13.236C19.0315 13.8494 19.2713 14.4501 19.7317 14.8902L21.4083 13.3673ZM21.7242 15.5025L19.677 14.4436C19.6346 14.5148 19.5965 14.5881 19.563 14.6632L21.7242 15.5025ZM21.6914 15.5634L19.6793 14.4475L19.6781 14.4494L21.6914 15.5634ZM20.9598 16.2239L19.8231 14.3164C19.2292 14.6238 18.8079 15.1563 18.6683 15.7758C18.5288 16.3952 18.6848 17.0406 19.096 17.5445L20.9598 16.2239ZM21.1239 18.1807L19.0741 17.1261C19.0298 17.2009 18.9903 17.278 18.9556 17.3571L21.1239 18.1807ZM21.0896 18.2449L19.0763 17.131L19.0755 17.1322L21.0896 18.2449ZM20.3606 18.9044L19.2205 16.9987C18.6277 17.3066 18.2075 17.8391 18.0686 18.4582C17.9298 19.0772 18.0861 19.722 18.497 20.2254L20.3606 18.9044ZM20.5063 20.9018L18.4757 19.8155C18.4588 19.8429 18.4425 19.8707 18.4269 19.8988L20.5063 20.9018ZM20.4914 20.9269L18.4794 19.8109L18.4781 19.8128L20.4914 20.9269ZM20.1406 21.3306L18.5508 19.7287L18.5459 19.733L20.1406 21.3306ZM24.476 11.9536C24.476 11.325 24.3138 10.7531 24.0668 10.2621L19.8263 12.1135C19.8147 12.0904 19.793 12.0334 19.793 11.9536H24.476ZM23.9509 13.8609C24.2835 13.2964 24.476 12.6453 24.476 11.9536H19.793C19.793 11.8842 19.8135 11.8158 19.846 11.7606L23.9509 13.8609ZM23.8759 13.9934C23.9555 13.8683 24.0235 13.7381 24.0796 13.6042L19.7173 12.0173C19.7533 11.9312 19.7969 11.8479 19.8475 11.7684L23.8759 13.9934ZM22.8765 15.0669C23.2681 14.7733 23.6089 14.4123 23.875 13.9949L19.8485 11.7668C19.8744 11.7262 19.9063 11.6931 19.9403 11.6676L22.8765 15.0669ZM24.3062 14.6356C24.3062 13.5442 23.8322 12.5586 23.0851 11.8444L19.7317 14.8902C19.6716 14.8328 19.6233 14.7412 19.6233 14.6356H24.3062ZM23.7715 16.5614C24.1115 15.9907 24.3062 15.3326 24.3062 14.6356H19.6233C19.6233 14.5687 19.6431 14.5006 19.677 14.4436L23.7715 16.5614ZM23.7035 16.6793C23.773 16.5704 23.8338 16.4576 23.8855 16.3419L19.563 14.6632C19.5962 14.5888 19.6351 14.5167 19.6793 14.4475L23.7035 16.6793ZM22.0966 18.1313C22.7465 17.795 23.3083 17.2993 23.7046 16.6774L19.6781 14.4494C19.7172 14.3882 19.769 14.3444 19.8231 14.3164L22.0966 18.1313ZM23.7039 17.317C23.7039 16.386 23.3538 15.5529 22.8237 14.9033L19.096 17.5445C19.0636 17.5048 19.0209 17.4244 19.0209 17.317H23.7039ZM23.1736 19.2354C23.5107 18.6664 23.7039 18.0111 23.7039 17.317H19.0209C19.0209 17.2504 19.0406 17.1826 19.0741 17.1261L23.1736 19.2354ZM23.1029 19.3587C23.1757 19.2446 23.2388 19.1261 23.2921 19.0044L18.9556 17.3571C18.9898 17.279 19.0301 17.2034 19.0763 17.131L23.1029 19.3587ZM21.5006 20.8102C22.1483 20.4738 22.7086 19.9786 23.1037 19.3575L19.0755 17.1322C19.1149 17.0703 19.1669 17.0265 19.2205 16.9987L21.5006 20.8102ZM23.1056 19.999C23.1056 19.0654 22.7539 18.2325 22.2242 17.5836L18.497 20.2254C18.4659 20.1873 18.4227 20.1069 18.4227 19.999H23.1056ZM22.5369 21.9882C22.8986 21.4011 23.1056 20.7195 23.1056 19.999H18.4227C18.4227 19.9352 18.442 19.8702 18.4757 19.8155L22.5369 21.9882ZM22.5033 22.0429C22.5324 21.9974 22.5599 21.9513 22.5857 21.9049L18.4269 19.8988C18.4434 19.8692 18.4609 19.8398 18.4794 19.8109L22.5033 22.0429ZM21.7302 22.9325C22.0283 22.6757 22.2907 22.3766 22.5046 22.0409L18.4781 19.8128C18.4992 19.7798 18.5242 19.7517 18.5508 19.7287L21.7302 22.9325ZM18.8131 23.9994C19.9421 23.9994 20.9722 23.5895 21.7352 22.9282L18.5459 19.733C18.6119 19.6758 18.7086 19.6358 18.8131 19.6358V23.9994ZM8.25079 23.9994H18.8131V19.6358H8.25079V23.9994ZM4.78342 22.9132C4.98307 23.0624 5.41996 23.4005 6.06989 23.6468C6.72064 23.8934 7.43689 23.9994 8.25079 23.9994V19.6358C7.87381 19.6358 7.78759 19.5871 7.83418 19.6047C7.87996 19.622 7.91098 19.6569 7.71295 19.5089L4.78342 22.9132ZM4.74495 22.861C4.78005 22.8647 4.78201 22.8674 4.7606 22.8615C4.75036 22.8587 4.737 22.8545 4.72146 22.8486C4.70589 22.8428 4.69087 22.8363 4.67711 22.8297C4.64871 22.816 4.6367 22.807 4.64984 22.8158C4.65742 22.8208 4.67059 22.83 4.69311 22.8463C4.71719 22.8638 4.74299 22.883 4.78342 22.9132L7.71295 19.5089C7.29968 19.2001 6.57459 18.6616 5.26832 18.5247L4.74495 22.861ZM1.05079 18.5738C1.05079 19.0346 1.0441 20.0384 1.55641 20.9559C2.20569 22.1188 3.39077 22.7191 4.74495 22.861L5.26832 18.5247C5.14458 18.5117 5.20813 18.4986 5.34924 18.5799C5.42021 18.6208 5.49445 18.6765 5.56291 18.7465C5.6307 18.8157 5.67865 18.8845 5.71072 18.9419C5.76996 19.048 5.76483 19.097 5.75311 19.0153C5.74103 18.9312 5.73371 18.802 5.73371 18.5738H1.05079ZM1.05079 12.727V18.5738H5.73371V12.727H1.05079ZM4.27253 8.78106C3.93861 8.89108 3.00457 9.16119 2.27285 9.80804C1.37825 10.5989 1.05079 11.6416 1.05079 12.727H5.73371C5.73371 12.5774 5.75563 12.5763 5.72345 12.6582C5.70663 12.701 5.67874 12.7567 5.63572 12.8176C5.59258 12.8787 5.54391 12.9313 5.4959 12.9737C5.40368 13.0552 5.34359 13.073 5.40415 13.0466C5.4332 13.034 5.47933 13.0156 5.55416 12.9892C5.63149 12.9618 5.71604 12.9338 5.83363 12.8951L4.27253 8.78106ZM5.28404 8.13301C5.16502 8.37764 5.06139 8.45155 4.99646 8.49306C4.87334 8.57182 4.71592 8.63499 4.27253 8.78106L5.83363 12.8951C6.73468 12.5982 8.52772 12.0344 9.54924 9.93453L5.28404 8.13301ZM6.17603 3.98443C6.18833 4.94633 6.21121 6.22697 5.28404 8.13301L9.54924 9.93453C10.8935 7.17093 10.874 5.1389 10.8587 3.93243L6.17603 3.98443ZM9.84474 0.130859C9.03055 0.130859 7.47763 0.255772 6.63711 1.62602C6.30384 2.16929 6.22455 2.71333 6.19546 3.04144C6.16599 3.37369 6.17282 3.73326 6.17603 3.98443L10.8587 3.93243C10.8546 3.61452 10.8551 3.48385 10.8625 3.40081C10.8702 3.31364 10.8708 3.51738 10.7027 3.79148C10.6091 3.9441 10.4785 4.09419 10.3117 4.22145C10.1488 4.34567 9.99324 4.41644 9.88202 4.45495C9.69377 4.52013 9.62722 4.4945 9.84474 4.4945V0.130859ZM14.5123 6.08668C14.6873 4.88331 14.3682 3.54543 13.744 2.48733C13.1383 1.46075 11.8701 0.130859 9.84474 0.130859V4.4945C9.6573 4.4945 9.53075 4.42478 9.49978 4.40294C9.48778 4.39448 9.55176 4.43947 9.64021 4.58943C9.72526 4.7336 9.79814 4.91711 9.84029 5.10878C9.88361 5.30565 9.88003 5.44411 9.87178 5.50086L14.5123 6.08668ZM14.243 7.61046C14.3214 7.21299 14.424 6.69459 14.5123 6.08668L9.87178 5.50086C9.7999 5.99548 9.71596 6.42279 9.63723 6.82168L14.243 7.61046ZM12.3147 6.70419C12.4645 6.70746 13.0174 6.74842 13.5245 7.20061C14.0231 7.6451 14.0941 8.1479 14.1061 8.26991C14.1177 8.38904 14.0997 8.41822 14.1248 8.24941C14.1471 8.09919 14.1845 7.90752 14.243 7.61046L9.63723 6.82168C9.58472 7.08791 9.52565 7.38481 9.48614 7.65099C9.44932 7.89857 9.40396 8.27204 9.44247 8.66592C9.48128 9.06268 9.63342 9.77068 10.2871 10.3535C10.9494 10.944 11.7318 11.0563 12.2045 11.0666L12.3147 6.70419ZM13.6994 6.73053C13.2469 6.72262 12.7868 6.71461 12.3147 6.70419L12.2045 11.0666C12.6899 11.0773 13.1608 11.0856 13.6116 11.0934L13.6994 6.73053ZM24.183 10.5418C23.4613 8.37208 21.4909 7.50742 19.7158 7.14431C18.013 6.79599 15.8465 6.76801 13.6994 6.73053L13.6116 11.0934C15.9446 11.1341 17.5671 11.1723 18.7116 11.4064C19.2531 11.5172 19.5092 11.6408 19.6161 11.7122C19.6755 11.7518 19.6878 11.7668 19.7101 11.8338L24.183 10.5418Z" fill="white"/>
</g>
<path d="M22.1329 11.9534C22.1329 11.679 22.0626 11.4216 21.945 11.1876C21.16 8.82795 17.4851 9.00032 12.2577 8.88523C11.3838 8.86614 11.8837 7.9045 12.1904 5.79359C12.39 4.42068 11.44 2.3125 9.84311 2.3125C7.21014 2.3125 9.74301 4.24777 7.41501 9.03359C6.17111 11.5907 3.39062 10.1583 3.39062 12.7269V18.5736C3.39062 19.5734 3.49599 20.5345 5.00506 20.6927C6.46789 20.846 6.13892 21.8174 8.24916 21.8174H18.8115C19.8874 21.8174 20.7625 21.0014 20.7625 19.9989C20.7625 19.5832 20.6062 19.2047 20.3539 18.8981C20.951 18.5867 21.3608 17.9987 21.3608 17.3169C21.3608 16.9023 21.2051 16.5238 20.9534 16.2178C21.5522 15.9069 21.9631 15.3183 21.9631 14.6354C21.9631 14.1396 21.7477 13.6901 21.4006 13.3612C21.8437 13.028 22.1329 12.524 22.1329 11.9534Z" fill="#FFDB5E"/>
<path d="M15.147 13.7727H20.1835C20.8684 13.7727 21.5111 13.4313 21.8611 12.882C22.0051 12.6556 21.9249 12.3627 21.6814 12.228C21.4385 12.0933 21.1242 12.1691 20.9796 12.3954C20.8139 12.6567 20.5078 12.8182 20.1829 12.8182H15.0258C14.5148 12.8182 14.0992 12.4309 14.0992 11.9547C14.0992 11.4785 14.5148 11.0913 15.0258 11.0913H18.4719C18.7546 11.0913 18.9841 10.8774 18.9841 10.614C18.9841 10.3505 18.7546 10.1367 18.4719 10.1367H15.0252C13.9493 10.1367 13.0742 10.9522 13.0742 11.9547C13.0742 12.5138 13.3523 13.0085 13.7796 13.3424C13.4196 13.6724 13.1954 14.1305 13.1954 14.6367C13.1954 15.1974 13.4752 15.6938 13.9049 16.0271C13.5472 16.3565 13.3253 16.8131 13.3253 17.3182C13.3253 17.9291 13.6526 18.468 14.1501 18.798C13.8434 19.1193 13.6514 19.5376 13.6514 20.0002C13.6514 21.0027 14.5265 21.8182 15.6024 21.8182H18.8126C19.4974 21.8182 20.1408 21.4773 20.4908 20.928C20.6354 20.7016 20.5552 20.4087 20.3123 20.274C20.0688 20.1404 19.7544 20.214 19.6104 20.4404C19.4436 20.7016 19.1374 20.8636 18.8126 20.8636H15.6024C15.0914 20.8636 14.6758 20.4764 14.6758 20.0002C14.6758 19.524 15.0914 19.1367 15.6024 19.1367H19.4108C20.0957 19.1367 20.7396 18.7953 21.089 18.246C21.2336 18.0191 21.1534 17.7262 20.9105 17.592C20.6652 17.4551 20.3521 17.532 20.2087 17.7584C20.0395 18.024 19.741 18.1822 19.4108 18.1822H15.2764C14.7653 18.1822 14.3497 17.7944 14.3497 17.3182C14.3497 16.842 14.7653 16.4547 15.2764 16.4547H20.0126C20.6974 16.4547 21.3408 16.1138 21.6908 15.5645C21.8354 15.3382 21.7552 15.0453 21.5123 14.9105C21.2682 14.7764 20.9544 14.8505 20.8104 15.0769C20.6412 15.342 20.3427 15.5002 20.0126 15.5002H15.147C14.636 15.5002 14.2204 15.1129 14.2204 14.6367C14.2204 14.1605 14.6354 13.7727 15.147 13.7727Z" fill="#EE9547"/>
</g>
<defs>
<clipPath id="clip0_485_9287">
<rect width="24" height="24" fill="white" transform="translate(0.5)"/>
</clipPath>
</defs>
</svg>
