<svg width="25" height="24" viewBox="0 0 25 24" fill="none" xmlns="http://www.w3.org/2000/svg">
<g clip-path="url(#clip0_485_9356)">
<path fill-rule="evenodd" clip-rule="evenodd" d="M22.32 11.9998C22.32 17.4222 17.9242 21.818 12.5018 21.818C7.07936 21.818 2.68359 17.4222 2.68359 11.9998C2.68359 6.5774 7.07936 2.18164 12.5018 2.18164C17.9242 2.18164 22.32 6.5774 22.32 11.9998Z" fill="#D9D9D9"/>
<mask id="mask0_485_9356" style="mask-type:luminance" maskUnits="userSpaceOnUse" x="0" y="0" width="25" height="24">
<path d="M24.5 0H0.5V24H24.5V0Z" fill="white"/>
<path fill-rule="evenodd" clip-rule="evenodd" d="M22.316 11.9998C22.316 17.4222 17.9203 21.818 12.4979 21.818C7.07545 21.818 2.67969 17.4222 2.67969 11.9998C2.67969 6.5774 7.07545 2.18164 12.4979 2.18164C17.9203 2.18164 22.316 6.5774 22.316 11.9998Z" fill="black"/>
</mask>
<g mask="url(#mask0_485_9356)">
<path d="M12.5 24C19.1274 24 24.5 18.6274 24.5 12H20.1364C20.1364 16.2175 16.7175 19.6364 12.5 19.6364V24ZM0.5 12C0.5 18.6274 5.87259 24 12.5 24V19.6364C8.28255 19.6364 4.86364 16.2175 4.86364 12H0.5ZM12.5 0C5.87259 0 0.5 5.37259 0.5 12H4.86364C4.86364 7.78255 8.28255 4.36364 12.5 4.36364V0ZM24.5 12C24.5 5.37259 19.1274 0 12.5 0V4.36364C16.7175 4.36364 20.1364 7.78255 20.1364 12H24.5Z" fill="white"/>
</g>
<path d="M12.5018 21.818C17.9242 21.818 22.32 17.4222 22.32 11.9998C22.32 6.5774 17.9242 2.18164 12.5018 2.18164C7.07936 2.18164 2.68359 6.5774 2.68359 11.9998C2.68359 17.4222 7.07936 21.818 12.5018 21.818Z" fill="#FFCC4D"/>
<path d="M16.5839 17.1151C16.5593 17.0175 15.9468 14.7266 12.5012 14.7266C9.05498 14.7266 8.44298 17.0175 8.41843 17.1151C8.38843 17.2335 8.44189 17.3562 8.54771 17.4173C8.65407 17.4778 8.78716 17.4598 8.87498 17.3753C8.88534 17.3649 9.9408 16.3629 12.5012 16.3629C15.0615 16.3629 16.1175 17.3649 16.1273 17.3747C16.1797 17.4266 16.2495 17.4538 16.3193 17.4538C16.3652 17.4538 16.4115 17.4424 16.4535 17.4189C16.5604 17.3578 16.6139 17.234 16.5839 17.1151Z" fill="#664500"/>
<path d="M9.22692 11.4549C9.98003 11.4549 10.5906 10.6002 10.5906 9.54581C10.5906 8.49145 9.98003 7.63672 9.22692 7.63672C8.47381 7.63672 7.86328 8.49145 7.86328 9.54581C7.86328 10.6002 8.47381 11.4549 9.22692 11.4549Z" fill="#664500"/>
<path d="M15.7738 11.4549C16.5269 11.4549 17.1374 10.6002 17.1374 9.54581C17.1374 8.49145 16.5269 7.63672 15.7738 7.63672C15.0207 7.63672 14.4102 8.49145 14.4102 9.54581C14.4102 10.6002 15.0207 11.4549 15.7738 11.4549Z" fill="#664500"/>
</g>
<defs>
<clipPath id="clip0_485_9356">
<rect width="24" height="24" fill="white" transform="translate(0.5)"/>
</clipPath>
</defs>
</svg>
