<svg width="25" height="24" viewBox="0 0 25 24" fill="none" xmlns="http://www.w3.org/2000/svg">
<g clip-path="url(#clip0_485_9318)">
<path fill-rule="evenodd" clip-rule="evenodd" d="M22.32 11.9998C22.32 17.4222 17.9242 21.818 12.5018 21.818C7.07936 21.818 2.68359 17.4222 2.68359 11.9998C2.68359 6.5774 7.07936 2.18164 12.5018 2.18164C17.9242 2.18164 22.32 6.5774 22.32 11.9998Z" fill="#D9D9D9"/>
<mask id="mask0_485_9318" style="mask-type:luminance" maskUnits="userSpaceOnUse" x="0" y="0" width="25" height="24">
<path d="M24.5 0H0.5V24H24.5V0Z" fill="white"/>
<path fill-rule="evenodd" clip-rule="evenodd" d="M22.32 11.9998C22.32 17.4222 17.9242 21.818 12.5018 21.818C7.07936 21.818 2.68359 17.4222 2.68359 11.9998C2.68359 6.5774 7.07936 2.18164 12.5018 2.18164C17.9242 2.18164 22.32 6.5774 22.32 11.9998Z" fill="black"/>
</mask>
<g mask="url(#mask0_485_9318)">
<path d="M12.5 24C19.1274 24 24.5 18.6274 24.5 12H20.1364C20.1364 16.2175 16.7175 19.6364 12.5 19.6364V24ZM0.5 12C0.5 18.6274 5.87259 24 12.5 24V19.6364C8.28255 19.6364 4.86364 16.2175 4.86364 12H0.5ZM12.5 0C5.87259 0 0.5 5.37259 0.5 12H4.86364C4.86364 7.78255 8.28255 4.36364 12.5 4.36364V0ZM24.5 12C24.5 5.37259 19.1274 0 12.5 0V4.36364C16.7175 4.36364 20.1364 7.78255 20.1364 12H24.5Z" fill="white"/>
</g>
<path d="M12.5018 21.818C17.9242 21.818 22.32 17.4222 22.32 11.9998C22.32 6.5774 17.9242 2.18164 12.5018 2.18164C7.07936 2.18164 2.68359 6.5774 2.68359 11.9998C2.68359 17.4222 7.07936 21.818 12.5018 21.818Z" fill="#FFCC4D"/>
<path d="M8.41843 15.0653C8.44297 15.1629 9.05552 17.4538 12.5012 17.4538C15.9473 17.4538 16.5593 15.1629 16.5839 15.0653C16.6139 14.9469 16.5604 14.8242 16.4546 14.7631C16.3482 14.7026 16.2152 14.7206 16.1273 14.8051C16.117 14.8155 15.0615 15.8175 12.5012 15.8175C9.94079 15.8175 8.88479 14.8155 8.87497 14.8057C8.82261 14.7538 8.75279 14.7266 8.68297 14.7266C8.63715 14.7266 8.59079 14.738 8.54879 14.7615C8.44188 14.8226 8.38843 14.9464 8.41843 15.0653Z" fill="#664500"/>
<path d="M9.22692 11.4549C9.98003 11.4549 10.5906 10.6002 10.5906 9.54581C10.5906 8.49145 9.98003 7.63672 9.22692 7.63672C8.47381 7.63672 7.86328 8.49145 7.86328 9.54581C7.86328 10.6002 8.47381 11.4549 9.22692 11.4549Z" fill="#664500"/>
<path d="M15.7738 11.4549C16.5269 11.4549 17.1374 10.6002 17.1374 9.54581C17.1374 8.49145 16.5269 7.63672 15.7738 7.63672C15.0207 7.63672 14.4102 8.49145 14.4102 9.54581C14.4102 10.6002 15.0207 11.4549 15.7738 11.4549Z" fill="#664500"/>
</g>
<defs>
<clipPath id="clip0_485_9318">
<rect width="24" height="24" fill="white" transform="translate(0.5)"/>
</clipPath>
</defs>
</svg>
