<svg width="25" height="24" viewBox="0 0 25 24" fill="none" xmlns="http://www.w3.org/2000/svg">
<g clip-path="url(#clip0_485_9336)">
<path fill-rule="evenodd" clip-rule="evenodd" d="M12.5018 21.818C17.9241 21.818 22.32 17.4222 22.32 11.9998C22.32 6.578 17.9241 2.18164 12.5018 2.18164C7.07996 2.18164 2.68359 6.578 2.68359 11.9998C2.68359 17.4222 7.07996 21.818 12.5018 21.818Z" fill="#D9D9D9"/>
<mask id="mask0_485_9336" style="mask-type:luminance" maskUnits="userSpaceOnUse" x="0" y="0" width="25" height="24">
<path d="M24.5 0H0.5V24H24.5V0Z" fill="white"/>
<path fill-rule="evenodd" clip-rule="evenodd" d="M12.5018 21.818C17.9241 21.818 22.32 17.4222 22.32 11.9998C22.32 6.578 17.9241 2.18164 12.5018 2.18164C7.07996 2.18164 2.68359 6.578 2.68359 11.9998C2.68359 17.4222 7.07996 21.818 12.5018 21.818Z" fill="black"/>
</mask>
<g mask="url(#mask0_485_9336)">
<path d="M20.1364 12C20.1364 16.2174 16.7174 19.6364 12.5 19.6364V24C19.1273 24 24.5 18.6273 24.5 12H20.1364ZM12.5 4.36364C16.7173 4.36364 20.1364 7.78309 20.1364 12H24.5C24.5 5.37328 19.1274 0 12.5 0V4.36364ZM4.86364 12C4.86364 7.78315 8.28315 4.36364 12.5 4.36364V0C5.8732 0 0.5 5.3732 0.5 12H4.86364ZM12.5 19.6364C8.28309 19.6364 4.86364 16.2173 4.86364 12H0.5C0.5 18.6274 5.87328 24 12.5 24V19.6364Z" fill="white"/>
</g>
<path d="M22.32 11.9998C22.32 17.4222 17.9241 21.818 12.5018 21.818C7.07996 21.818 2.68359 17.4222 2.68359 11.9998C2.68359 6.578 7.07996 2.18164 12.5018 2.18164C17.9241 2.18164 22.32 6.578 22.32 11.9998Z" fill="#FFCC4D"/>
<path d="M12.5007 20.1822C14.0069 20.1822 15.228 18.7169 15.228 16.9094C15.228 15.102 14.0069 13.6367 12.5007 13.6367C10.9945 13.6367 9.77344 15.102 9.77344 16.9094C9.77344 18.7169 10.9945 20.1822 12.5007 20.1822Z" fill="#664500"/>
<path d="M5.95504 8.18093C5.84158 8.18093 5.72649 8.14548 5.62831 8.07184C5.38722 7.89129 5.33867 7.54929 5.51922 7.3082C7.29849 4.93548 9.6734 4.9082 9.77377 4.9082C10.0749 4.9082 10.3192 5.15257 10.3192 5.45366C10.3192 5.7542 10.0765 5.99802 9.77595 5.99911C9.6914 6.0002 7.82977 6.04602 6.39195 7.96275C6.28504 8.10566 6.12086 8.18093 5.95504 8.18093ZM19.047 8.18093C18.8807 8.18093 18.7176 8.10566 18.6101 7.96275C17.1701 6.0422 15.3041 6.0002 15.225 5.99911C14.925 5.99584 14.6829 5.75038 14.6845 5.45093C14.6861 5.15038 14.9283 4.9082 15.2283 4.9082C15.3287 4.9082 17.703 4.93548 19.4829 7.3082C19.6639 7.54929 19.6149 7.89129 19.3738 8.07184C19.2756 8.14548 19.161 8.18093 19.047 8.18093Z" fill="#664500"/>
<path d="M12.4996 14.7266C11.5958 14.7266 10.8633 15.7029 10.8633 16.9084H14.136C14.136 15.7029 13.4035 14.7266 12.4996 14.7266Z" fill="#F5F8FA"/>
<path d="M9.22692 11.9998C9.98003 11.9998 10.5906 11.1451 10.5906 10.0907C10.5906 9.03637 9.98003 8.18164 9.22692 8.18164C8.47381 8.18164 7.86328 9.03637 7.86328 10.0907C7.86328 11.1451 8.47381 11.9998 9.22692 11.9998Z" fill="#664500"/>
<path d="M15.7738 11.9998C16.5269 11.9998 17.1374 11.1451 17.1374 10.0907C17.1374 9.03637 16.5269 8.18164 15.7738 8.18164C15.0207 8.18164 14.4102 9.03637 14.4102 10.0907C14.4102 11.1451 15.0207 11.9998 15.7738 11.9998Z" fill="#664500"/>
</g>
<defs>
<clipPath id="clip0_485_9336">
<rect width="24" height="24" fill="white" transform="translate(0.5)"/>
</clipPath>
</defs>
</svg>
